<svg version="1.1" id="Layer_1" xmlns="http://www.w3.org/2000/svg" xmlns:xlink="http://www.w3.org/1999/xlink" x="0px" y="0px"
	 width="100%" viewBox="0 0 512 512" enable-background="new 0 0 512 512" xml:space="preserve">
<path fill="#2AA198" opacity="1.000000" stroke="none" 
	d="
M0.999995,476.000000 
	C1.000000,330.309265 1.000000,184.618515 1.335709,38.708771 
	C2.035709,38.155437 2.605820,37.886009 2.734663,37.477428 
	C8.207375,20.122690 19.607624,8.653445 36.841408,2.882090 
	C37.377567,2.702537 37.620411,1.647099 38.000000,1.000000 
	C183.690750,1.000000 329.381500,1.000000 475.291260,1.335732 
	C475.844574,2.035753 476.114014,2.605865 476.522614,2.734714 
	C493.877319,8.207417 505.346588,19.607607 511.117920,36.841373 
	C511.297485,37.377537 512.352905,37.620399 513.000000,38.000000 
	C513.000000,183.690750 513.000000,329.381500 512.664307,475.291199 
	C511.964233,475.844543 511.394104,476.113983 511.265259,476.522583 
	C505.792633,493.877319 494.392365,505.346527 477.158722,511.118011 
	C476.622559,511.297546 476.379639,512.352905 476.000000,513.000000 
	C330.309265,513.000000 184.618515,513.000000 38.708755,512.664307 
	C38.155399,511.964294 37.885971,511.394135 37.477394,511.265320 
	C20.122711,505.792542 8.653411,494.392365 2.882063,477.158600 
	C2.702516,476.622437 1.647088,476.379608 0.999995,476.000000 
M322.979736,314.239380 
	C322.310699,318.342712 321.765076,322.470673 320.952454,326.545380 
	C315.996979,351.393250 304.010620,371.063751 280.247253,382.256287 
	C263.383636,390.199005 245.524612,393.714478 227.092667,394.357452 
	C213.866653,394.818848 204.560745,388.490662 199.582184,376.117676 
	C198.592056,373.656921 197.751404,371.127502 196.986603,368.586182 
	C194.640411,360.790222 192.938171,352.737793 189.864624,345.244873 
	C187.728104,340.036285 184.105377,335.275269 180.396652,330.958649 
	C179.039703,329.379303 174.856659,328.447144 173.150024,329.383514 
	C170.825775,330.658752 168.527817,333.851715 168.159409,336.493073 
	C166.690491,347.024841 167.887482,357.442291 171.969879,367.351929 
	C181.375015,390.181915 196.922089,406.656036 222.053192,410.563843 
	C240.659332,413.456970 259.650238,413.154358 278.198853,408.810059 
	C309.734833,401.423889 331.786438,383.114899 340.191071,351.225739 
	C343.809509,337.496490 346.046814,323.103058 346.599609,308.921204 
	C348.401917,262.686157 343.087952,216.794540 337.241425,171.050095 
	C334.611420,150.472351 329.723389,130.184204 325.903198,109.756554 
	C325.322845,106.653046 323.734314,104.955719 320.582581,104.044098 
	C309.321838,100.787003 307.571899,102.168900 307.722351,113.886711 
	C308.083466,142.016235 313.801575,169.473419 318.698975,196.953568 
	C325.593414,235.639206 326.790771,274.355133 322.979736,314.239380 
z"/>
<path fill="#000000" opacity="1.000000" stroke="none" 
	d="
M37.531342,1.000000 
	C37.620411,1.647099 37.377567,2.702537 36.841408,2.882090 
	C19.607624,8.653445 8.207375,20.122690 2.734663,37.477428 
	C2.605820,37.886009 2.035709,38.155437 1.335709,38.244888 
	C1.000000,25.740049 1.000000,13.480098 1.000000,1.000000 
	C13.020000,1.000000 25.041342,1.000000 37.531342,1.000000 
z"/>
<path fill="#000000" opacity="1.000000" stroke="none" 
	d="
M513.000000,37.531342 
	C512.352905,37.620399 511.297485,37.377537 511.117920,36.841373 
	C505.346588,19.607607 493.877319,8.207417 476.522614,2.734714 
	C476.114014,2.605865 475.844574,2.035753 475.755127,1.335732 
	C488.259949,1.000000 500.519897,1.000000 513.000000,1.000000 
	C513.000000,13.020000 513.000000,25.041342 513.000000,37.531342 
z"/>
<path fill="#000000" opacity="1.000000" stroke="none" 
	d="
M0.999995,476.468689 
	C1.647088,476.379608 2.702516,476.622437 2.882063,477.158600 
	C8.653411,494.392365 20.122711,505.792542 37.477394,511.265320 
	C37.885971,511.394135 38.155399,511.964294 38.244873,512.664307 
	C25.740049,513.000000 13.480098,513.000000 1.000000,513.000000 
	C1.000000,500.980011 1.000000,488.958649 0.999995,476.468689 
z"/>
<path fill="#000000" opacity="1.000000" stroke="none" 
	d="
M476.468689,513.000000 
	C476.379639,512.352905 476.622559,511.297546 477.158722,511.118011 
	C494.392365,505.346527 505.792633,493.877319 511.265259,476.522583 
	C511.394104,476.113983 511.964233,475.844543 512.664307,475.755096 
	C513.000000,488.259949 513.000000,500.519897 513.000000,513.000000 
	C500.980011,513.000000 488.958649,513.000000 476.468689,513.000000 
z"/>
<path fill="#FDFEFE" opacity="1.000000" stroke="none" 
	d="
M323.016174,313.793030 
	C326.790771,274.355133 325.593414,235.639206 318.698975,196.953568 
	C313.801575,169.473419 308.083466,142.016235 307.722351,113.886711 
	C307.571899,102.168900 309.321838,100.787003 320.582581,104.044098 
	C323.734314,104.955719 325.322845,106.653046 325.903198,109.756554 
	C329.723389,130.184204 334.611420,150.472351 337.241425,171.050095 
	C343.087952,216.794540 348.401917,262.686157 346.599609,308.921204 
	C346.046814,323.103058 343.809509,337.496490 340.191071,351.225739 
	C331.786438,383.114899 309.734833,401.423889 278.198853,408.810059 
	C259.650238,413.154358 240.659332,413.456970 222.053192,410.563843 
	C196.922089,406.656036 181.375015,390.181915 171.969879,367.351929 
	C167.887482,357.442291 166.690491,347.024841 168.159409,336.493073 
	C168.527817,333.851715 170.825775,330.658752 173.150024,329.383514 
	C174.856659,328.447144 179.039703,329.379303 180.396652,330.958649 
	C184.105377,335.275269 187.728104,340.036285 189.864624,345.244873 
	C192.938171,352.737793 194.640411,360.790222 196.986603,368.586182 
	C197.751404,371.127502 198.592056,373.656921 199.582184,376.117676 
	C204.560745,388.490662 213.866653,394.818848 227.092667,394.357452 
	C245.524612,393.714478 263.383636,390.199005 280.247253,382.256287 
	C304.010620,371.063751 315.996979,351.393250 320.952454,326.545380 
	C321.765076,322.470673 322.310699,318.342712 323.016174,313.793030 
z"/>
</svg>