<?xml version="1.0" encoding="UTF-8"?>
<svg id="Design" xmlns="http://www.w3.org/2000/svg" viewBox="0 0 32 32">
  <defs>
    <style>
      .cls-1 {
        fill: #4e4e4e;
        stroke-width: 0px;
      }
    </style>
  </defs>
  <path class="cls-1" d="M7.79,22.29s.02.1.02.14c0,.06-.01.11,0-.04,0,.03,0,.06.01.08.01.12.03.25.03.37.02.29.04.58.05.88.03.67.04,1.35.05,2.02.01.61.03,1.22.08,1.82.03.4.05.88.27,1.23.21.33.58.33.93.34.31,0,.62,0,.92,0,.94-.02,1.88-.07,2.82-.12,2.42-.13,4.85-.31,7.26-.56,1.06-.11,2.13-.24,3.19-.41.66-.11,1.37-.21,1.98-.49.26-.12.46-.31.53-.6.12-.46.08-.99.06-1.46-.06-1.47-.2-2.94-.22-4.42,0-.3,0-.6.02-.9.02-.29-.26-.56-.55-.55-.31.01-.53.24-.55.55-.08,1.41.06,2.84.15,4.25.04.6.08,1.21.07,1.81,0,.1,0,.2-.01.31,0,.03-.01.08-.01.11-.02-.14.02-.13,0-.07,0,.02,0,.04-.01.07,0,.02-.02.05-.02.07-.02-.08.07-.15.03-.07.11-.17.1-.12.06-.08-.07.07.11-.07.07-.05-.03.01-.06.04-.09.05-.02.01-.04.02-.06.03-.12.06.12-.05.05-.02-.11.04-.22.08-.33.11-.31.09-.63.15-.95.21-.42.08-.85.14-1.28.2-.06,0-.12.02-.18.03-.12.02.14-.02.02,0-.02,0-.04,0-.06,0-.14.02-.28.04-.42.05-.26.03-.52.06-.79.09-2.36.27-4.73.45-7.11.59-1,.06-2,.11-3,.15-.61.02-1.22.05-1.83.02-.04,0-.08-.01-.12,0-.01,0,.16.03.12.02.14.04.15.07.1.04.12.07.12.1.08.06.12.13.08.12.05.07-.06-.1.04.12.02.06,0-.03-.02-.06-.03-.1-.02-.08-.04-.17-.05-.25,0-.02,0-.05-.01-.07-.02-.1.02.15,0,.04,0-.05-.01-.09-.02-.14-.01-.13-.02-.25-.03-.38-.02-.3-.03-.59-.04-.89-.04-1.24-.02-2.49-.13-3.73-.02-.25-.05-.5-.09-.75-.05-.29-.41-.46-.67-.38-.31.08-.44.38-.38.67h0Z"/>
  <path class="cls-1" d="M10.07,26.32c3.68-.22,7.36-.53,11.03-.86,1.03-.09,2.06-.19,3.09-.28.28-.03.56-.23.55-.55-.01-.27-.24-.58-.55-.55-3.67.34-7.34.67-11.01.94-1.04.07-2.07.14-3.11.21-.28.02-.56.24-.55.55.01.28.24.57.55.55h0Z"/>
  <path class="cls-1" d="M15.82,19.62c.17,1.16.23,2.37.2,3.56,0,.29.26.56.55.55.3-.01.54-.24.55-.55.04-1.29-.05-2.57-.24-3.85-.04-.29-.41-.45-.67-.38-.31.09-.42.38-.38.67h0Z"/>
  <path class="cls-1" d="M10.97,21.5c.35.67.57,1.46.62,2.2.02.28.24.56.55.55.28-.01.57-.24.55-.55-.07-.96-.32-1.89-.77-2.75-.14-.26-.5-.34-.75-.2-.27.16-.33.48-.2.75h0Z"/>
  <path class="cls-1" d="M20.38,21.12c.06.59.11,1.18.17,1.77.03.28.23.56.55.55.27-.01.58-.24.55-.55-.06-.59-.11-1.18-.17-1.77-.03-.28-.23-.56-.55-.55-.27.01-.58.24-.55.55h0Z"/>
  <path class="cls-1" d="M8.7,21.41c-.48.04-.97.03-1.45-.02-.05,0-.11,0-.16-.02,0,0,.14.02.05,0-.03,0-.06,0-.09-.01-.11-.02-.22-.04-.33-.06-.2-.04-.41-.09-.61-.16-.09-.03-.18-.06-.27-.09-.04-.02-.09-.03-.13-.05-.02,0-.04-.02-.07-.03-.12-.05.11.05.01,0-.18-.08-.35-.16-.53-.26-.17-.09-.33-.19-.49-.3-.07-.05-.14-.12-.22-.16.15.08.03.02-.02-.01-.04-.03-.08-.07-.12-.1-.29-.25-.54-.52-.78-.82-.1-.12.06.09-.02-.03-.03-.04-.05-.07-.08-.11-.06-.08-.11-.16-.17-.24-.1-.16-.2-.32-.29-.48-.09-.17-.17-.33-.25-.51-.02-.05-.06-.19,0-.02-.01-.04-.03-.08-.05-.12-.04-.09-.07-.19-.1-.28-.13-.36-.23-.73-.3-1.1-.02-.09-.04-.19-.05-.28,0-.05-.01-.09-.02-.14,0-.02,0-.05-.01-.07-.01-.1,0-.01,0,.04,0-.19-.05-.4-.06-.59-.03-.39-.02-.78,0-1.18.01-.19.03-.39.06-.58.01-.1-.02.12,0,.05,0-.02,0-.05,0-.07,0-.05.01-.09.02-.14.02-.1.03-.2.05-.3.07-.38.17-.75.3-1.11.03-.09.06-.17.09-.26.02-.05.04-.09.05-.14,0-.02.02-.04.03-.06.04-.09-.05.12-.01.03.08-.18.16-.35.25-.52.17-.33.37-.66.6-.96.01-.01.02-.03.03-.04.06-.08-.09.11-.02.03.03-.03.05-.07.08-.1.06-.07.12-.15.19-.22.12-.14.25-.27.39-.4.06-.06.13-.12.2-.18.03-.03.07-.06.1-.08.02-.02.04-.03.06-.05.08-.07-.11.08-.03.02.15-.11.3-.22.46-.32.16-.1.33-.19.49-.27.04-.02.09-.04.14-.06.02-.01.17-.07.07-.03-.1.04.05-.02.07-.03.05-.02.1-.04.16-.06.19-.07.38-.13.58-.17.09-.02.19-.04.28-.06.05,0,.28-.08.32-.05-.01,0-.13.02-.06,0,.03,0,.06,0,.09-.01.05,0,.1-.01.15-.02.11,0,.23-.02.34-.02.22,0,.45,0,.67,0,.11,0,.22.01.33.03.06,0,.11.01.17.02.03,0,.07,0,.1.01-.07-.01-.09-.01,0,0,.25.04.5.08.74.14.26.06.52.13.77.21.27.09.61-.1.67-.38.07-.3-.09-.58-.38-.67-1.88-.59-3.93-.67-5.74.19-1.47.71-2.59,2.02-3.23,3.51-.67,1.56-.89,3.29-.67,4.98.22,1.65.88,3.25,2.05,4.46,1.27,1.31,3.04,1.96,4.85,1.98.24,0,.49,0,.73-.02.28-.02.56-.24.55-.55-.01-.28-.24-.57-.55-.55h0Z"/>
  <path class="cls-1" d="M11.47,9.07c.06-.35.15-.7.26-1.04.05-.16.11-.31.17-.46.03-.07-.04.1-.01.03,0-.02.01-.03.02-.05.01-.03.03-.07.04-.1.04-.08.08-.16.12-.24.14-.28.31-.55.5-.81.02-.03.05-.06.07-.1.07-.1-.05.06,0,0,.05-.06.1-.12.15-.18.1-.12.21-.23.31-.34.11-.11.22-.21.34-.32.05-.05.11-.09.16-.14.03-.02.05-.04.08-.06.1-.08-.08.06.02-.01.24-.18.5-.35.76-.49.13-.07.26-.14.39-.2.07-.03.14-.06.21-.09.09-.04-.1.04-.01,0,.04-.02.08-.03.12-.05.27-.11.56-.2.84-.27.15-.04.29-.07.44-.1.07-.01.14-.02.21-.04.04,0,.07-.01.11-.02.06,0-.07,0-.07,0,.01,0,.06,0,.08,0,.29-.03.58-.05.88-.05.15,0,.3,0,.45.02.07,0,.14,0,.21.02.06,0,.19.04.24.03-.05.02-.12-.02-.02,0,.04,0,.07.01.11.02.07.01.15.02.22.04.15.03.29.06.43.1.28.07.55.17.82.27,0,0,.06.02.06.02,0,0-.11-.05-.06-.02.03.02.07.03.1.04.07.03.13.06.2.09.13.07.26.14.39.21.13.07.25.15.37.24.06.04.11.08.17.12.01,0,.03.02.04.03.05.04.02-.01-.04-.03.03,0,.06.05.09.07.23.19.45.39.65.61.05.05.09.1.14.16.02.03.05.06.07.09.05.06.07.07,0,0,.11.1.19.26.27.38.17.27.32.55.45.84.03.06.03.08,0,0,.01.04.03.08.05.11.03.08.06.16.09.23.06.16.1.32.15.49.04.17.08.34.11.52.02.08.03.17.04.25.02.1-.01-.11,0,.03,0,.05.01.09.02.14.02.19.03.38.04.57.01.29.24.56.55.55.29-.01.56-.24.55-.55-.05-1.47-.46-2.94-1.36-4.11-.82-1.07-1.93-1.85-3.21-2.28-1.23-.42-2.57-.48-3.84-.25-1.29.23-2.51.82-3.5,1.68-1.06.92-1.8,2.19-2.15,3.55-.05.18-.09.37-.12.55-.05.28.08.6.38.67.27.06.62-.08.67-.38h0Z"/>
  <path class="cls-1" d="M24.11,10.24c.32-.13.65-.24.99-.31.07-.02.15-.03.22-.04.03,0,.07-.01.1-.02.15-.02-.12.01.03,0,.15-.01.29-.03.44-.03.15,0,.29,0,.44.01.03,0,.06,0,.09,0,.02,0,.04,0,.05,0,.09,0-.06,0-.07,0,.07.02.14.02.21.03.27.05.52.16.78.24-.08-.02-.1-.04-.02,0,.03.01.05.02.08.04.06.03.13.06.19.1.11.06.22.13.33.2.05.03.1.07.15.11.07.05.05.05-.01-.01.03.03.06.05.09.07.1.08.2.17.3.27.09.09.18.19.27.28.04.05.09.1.13.15.07.09-.03-.03-.02-.02.02.03.05.06.07.09.16.22.3.45.42.69.03.06.06.11.08.17.01.03.03.05.04.08.01.02.06.15.02.05-.04-.1,0,.02.02.04.01.03.02.06.03.08.03.07.05.14.07.21.09.26.16.52.21.79.01.07.02.14.03.2,0,.03.02.14,0,.03-.02-.11,0,.03,0,.06.02.14.03.28.03.42.01.27,0,.55-.03.82,0,.02-.02.16,0,.04.01-.11,0,0,0,.03-.01.07-.02.15-.04.22-.03.14-.06.27-.1.41-.04.13-.08.26-.13.38-.01.03-.02.07-.04.1-.02.05-.08.13,0,0-.04.06-.06.13-.09.19-.12.26-.27.5-.44.73-.02.03-.04.05-.06.08-.04.05.08-.1.04-.05-.01.01-.02.03-.03.04-.05.06-.09.11-.14.17-.1.11-.2.22-.31.32-.05.05-.1.1-.16.14-.03.02-.06.05-.09.07-.01.01-.03.02-.04.04-.06.05.04-.02.04-.03-.03.05-.14.1-.19.14-.07.05-.13.09-.2.13-.14.09-.28.17-.43.24-.07.04-.14.07-.21.1-.02,0-.16.07-.07.03.09-.04-.06.03-.09.03-.34.13-.69.23-1.05.31-.09.02-.18.04-.27.05-.05,0-.1.02-.15.02-.03,0-.05,0-.08.01-.02,0-.13.02-.04,0,.09,0-.06,0-.08,0-.05,0-.11.01-.16.02-.11.01-.22.02-.32.03-.23.01-.45.02-.68.02-.29,0-.56.25-.55.55.01.3.24.55.55.55,1.6,0,3.29-.32,4.59-1.32,1.04-.79,1.77-1.93,2.02-3.22.24-1.25.09-2.53-.41-3.7-.46-1.08-1.27-2.05-2.31-2.61-1.19-.64-2.59-.7-3.87-.29-.17.05-.34.12-.5.18-.27.11-.47.36-.38.67.07.26.4.49.67.38h0Z"/>
</svg>